Normalized EMG Linear Envelopes
nRows=59
nColumns=17

endheader
time	        VM	        VL	        RF	       GRA	        TA	   ADDLONG	   SEMIMEM	      BFLH	        GM	        GL	       TFL	   GLUTMAX	   GLUTMED	      PIRI	    OBTINT	        QF	
2.771	  0.000000	  0.000000	  0.031194	  0.346600	  0.058533	  0.608308	  0.051903	  0.032206	  0.210260	  0.103072	  0.180067	  0.001240	  0.205247	  0.258180	  0.361231	  0.060037	
2.7715	  0.000000	  0.000000	  0.031667	  0.349685	  0.059211	  0.610320	  0.051910	  0.031867	  0.206177	  0.100307	  0.182347	  0.001543	  0.204912	  0.257067	  0.359350	  0.060579	
2.772	  0.000000	  0.000000	  0.032146	  0.352738	  0.059918	  0.612192	  0.051915	  0.031540	  0.202129	  0.097593	  0.184633	  0.001851	  0.204553	  0.255938	  0.357485	  0.061107	
2.7725	  0.000000	  0.000000	  0.032632	  0.355758	  0.060654	  0.613923	  0.051917	  0.031224	  0.198118	  0.094930	  0.186923	  0.002163	  0.204169	  0.254792	  0.355638	  0.061621	
2.773	  0.000000	  0.000000	  0.033125	  0.358745	  0.061419	  0.615513	  0.051918	  0.030919	  0.194145	  0.092318	  0.189217	  0.002478	  0.203761	  0.253632	  0.353812	  0.062121	
2.7735	  0.000000	  0.000000	  0.033623	  0.361699	  0.062214	  0.616961	  0.051917	  0.030625	  0.190211	  0.089757	  0.191515	  0.002798	  0.203327	  0.252457	  0.352008	  0.062606	
2.774	  0.000000	  0.000000	  0.034128	  0.364618	  0.063038	  0.618267	  0.051913	  0.030342	  0.186316	  0.087248	  0.193816	  0.003120	  0.202869	  0.251269	  0.350228	  0.063075	
2.7745	  0.000000	  0.000000	  0.034639	  0.367503	  0.063892	  0.619431	  0.051908	  0.030068	  0.182462	  0.084789	  0.196119	  0.003446	  0.202386	  0.250067	  0.348475	  0.063529	
2.775	  0.000000	  0.000000	  0.035156	  0.370351	  0.064776	  0.620454	  0.051900	  0.029805	  0.178651	  0.082381	  0.198424	  0.003775	  0.201877	  0.248853	  0.346749	  0.063966	
2.7755	  0.000000	  0.000000	  0.035680	  0.373164	  0.065690	  0.621336	  0.051891	  0.029551	  0.174882	  0.080024	  0.200730	  0.004107	  0.201344	  0.247626	  0.345054	  0.064387	
2.776	  0.000000	  0.000000	  0.036209	  0.375940	  0.066634	  0.622077	  0.051880	  0.029307	  0.171156	  0.077717	  0.203036	  0.004441	  0.200785	  0.246388	  0.343391	  0.064791	
2.7765	  0.000000	  0.000000	  0.036744	  0.378678	  0.067607	  0.622680	  0.051867	  0.029071	  0.167475	  0.075461	  0.205342	  0.004778	  0.200200	  0.245139	  0.341762	  0.065178	
2.777	  0.000000	  0.000000	  0.037285	  0.381378	  0.068611	  0.623145	  0.051852	  0.028844	  0.163839	  0.073256	  0.207648	  0.005117	  0.199590	  0.243879	  0.340168	  0.065547	
2.7775	  0.000000	  0.000000	  0.037833	  0.384040	  0.069644	  0.623474	  0.051835	  0.028625	  0.160249	  0.071100	  0.209953	  0.005458	  0.198954	  0.242608	  0.338611	  0.065898	
2.778	  0.000000	  0.000000	  0.038386	  0.386664	  0.070708	  0.623669	  0.051816	  0.028415	  0.156705	  0.068995	  0.212256	  0.005800	  0.198292	  0.241328	  0.337092	  0.066231	
2.7785	  0.000000	  0.000000	  0.038946	  0.389249	  0.071802	  0.623732	  0.051795	  0.028212	  0.153208	  0.066939	  0.214557	  0.006144	  0.197605	  0.240039	  0.335613	  0.066545	
2.779	  0.000000	  0.000000	  0.039512	  0.391796	  0.072925	  0.623665	  0.051771	  0.028017	  0.149759	  0.064932	  0.216856	  0.006489	  0.196893	  0.238741	  0.334176	  0.066840	
2.7795	  0.000000	  0.000000	  0.040084	  0.394305	  0.074079	  0.623470	  0.051746	  0.027829	  0.146359	  0.062975	  0.219151	  0.006836	  0.196156	  0.237434	  0.332781	  0.067115	
2.78	  0.000000	  0.000000	  0.040662	  0.396775	  0.075262	  0.623149	  0.051718	  0.027648	  0.143007	  0.061067	  0.221442	  0.007183	  0.195394	  0.236120	  0.331429	  0.067371	
2.7805	  0.000000	  0.000000	  0.041247	  0.399206	  0.076474	  0.622703	  0.051689	  0.027474	  0.139704	  0.059208	  0.223729	  0.007532	  0.194609	  0.234799	  0.330123	  0.067607	
2.781	  0.000000	  0.000000	  0.041838	  0.401597	  0.077716	  0.622135	  0.051657	  0.027306	  0.136450	  0.057397	  0.226012	  0.007881	  0.193800	  0.233471	  0.328863	  0.067822	
2.7815	  0.000000	  0.000000	  0.042435	  0.403950	  0.078988	  0.621447	  0.051622	  0.027145	  0.133247	  0.055633	  0.228290	  0.008230	  0.192968	  0.232138	  0.327650	  0.068017	
2.782	  0.000000	  0.000000	  0.043039	  0.406262	  0.080288	  0.620641	  0.051585	  0.026990	  0.130093	  0.053918	  0.230562	  0.008580	  0.192115	  0.230800	  0.326484	  0.068191	
2.7825	  0.000000	  0.000000	  0.043649	  0.408533	  0.081618	  0.619721	  0.051546	  0.026840	  0.126990	  0.052250	  0.232827	  0.008930	  0.191241	  0.229457	  0.325368	  0.068345	
2.783	  0.000000	  0.000000	  0.044265	  0.410763	  0.082976	  0.618688	  0.051504	  0.026697	  0.123938	  0.050628	  0.235086	  0.009280	  0.190346	  0.228112	  0.324300	  0.068479	
2.7835	  0.000000	  0.000000	  0.044887	  0.412951	  0.084362	  0.617545	  0.051460	  0.026559	  0.120937	  0.049053	  0.237337	  0.009630	  0.189431	  0.226763	  0.323283	  0.068592	
2.784	  0.000000	  0.000000	  0.045516	  0.415097	  0.085777	  0.616295	  0.051412	  0.026426	  0.117986	  0.047525	  0.239580	  0.009980	  0.188496	  0.225413	  0.322316	  0.068684	
2.7845	  0.000000	  0.000000	  0.046152	  0.417199	  0.087219	  0.614941	  0.051363	  0.026298	  0.115087	  0.046042	  0.241815	  0.010329	  0.187542	  0.224061	  0.321401	  0.068757	
2.785	  0.000000	  0.000000	  0.046794	  0.419257	  0.088689	  0.613486	  0.051310	  0.026176	  0.112239	  0.044604	  0.244042	  0.010677	  0.186571	  0.222708	  0.320538	  0.068810	
2.7855	  0.000000	  0.000000	  0.047443	  0.421271	  0.090186	  0.611932	  0.051254	  0.026057	  0.109443	  0.043211	  0.246259	  0.011025	  0.185582	  0.221355	  0.319727	  0.068844	
2.786	  0.000000	  0.000000	  0.048098	  0.423239	  0.091710	  0.610282	  0.051196	  0.025944	  0.106698	  0.041863	  0.248466	  0.011372	  0.184576	  0.220002	  0.318968	  0.068858	
2.7865	  0.000000	  0.000000	  0.048761	  0.425161	  0.093260	  0.608540	  0.051134	  0.025835	  0.104004	  0.040559	  0.250663	  0.011718	  0.183553	  0.218649	  0.318263	  0.068854	
2.787	  0.000000	  0.000000	  0.049430	  0.427037	  0.094836	  0.606706	  0.051070	  0.025729	  0.101361	  0.039298	  0.252850	  0.012064	  0.182516	  0.217297	  0.317612	  0.068831	
2.7875	  0.000000	  0.000000	  0.050106	  0.428865	  0.096438	  0.604785	  0.051002	  0.025628	  0.098770	  0.038080	  0.255025	  0.012407	  0.181465	  0.215946	  0.317014	  0.068790	
2.788	  0.000000	  0.000000	  0.050788	  0.430645	  0.098064	  0.602779	  0.050930	  0.025531	  0.096230	  0.036904	  0.257189	  0.012750	  0.180399	  0.214596	  0.316470	  0.068731	
2.7885	  0.000364	  0.000000	  0.051478	  0.432376	  0.099715	  0.600691	  0.050856	  0.025437	  0.093741	  0.035770	  0.259341	  0.013091	  0.179321	  0.213249	  0.315981	  0.068656	
2.789	  0.000781	  0.000000	  0.052175	  0.434058	  0.101391	  0.598524	  0.050777	  0.025347	  0.091303	  0.034678	  0.261481	  0.013431	  0.178231	  0.211904	  0.315546	  0.068563	
2.7895	  0.001197	  0.000000	  0.052878	  0.435689	  0.103089	  0.596280	  0.050695	  0.025260	  0.088915	  0.033627	  0.263608	  0.013769	  0.177130	  0.210561	  0.315165	  0.068454	
2.79	  0.001611	  0.000000	  0.053588	  0.437270	  0.104811	  0.593962	  0.050609	  0.025176	  0.086578	  0.032616	  0.265722	  0.014106	  0.176018	  0.209221	  0.314838	  0.068328	
2.7905	  0.002024	  0.000000	  0.054305	  0.438799	  0.106555	  0.591571	  0.050519	  0.025095	  0.084291	  0.031645	  0.267823	  0.014441	  0.174897	  0.207883	  0.314566	  0.068187	
2.791	  0.002435	  0.000000	  0.055029	  0.440276	  0.108320	  0.589111	  0.050425	  0.025017	  0.082054	  0.030714	  0.269910	  0.014773	  0.173767	  0.206549	  0.314347	  0.068030	
2.7915	  0.002844	  0.000000	  0.055760	  0.441701	  0.110107	  0.586583	  0.050326	  0.024942	  0.079867	  0.029821	  0.271982	  0.015104	  0.172628	  0.205217	  0.314183	  0.067859	
2.792	  0.003251	  0.000000	  0.056497	  0.443072	  0.111914	  0.583990	  0.050223	  0.024869	  0.077729	  0.028966	  0.274039	  0.015433	  0.171482	  0.203888	  0.314072	  0.067672	
2.7925	  0.003656	  0.000000	  0.057242	  0.444390	  0.113740	  0.581332	  0.050115	  0.024798	  0.075641	  0.028148	  0.276081	  0.015759	  0.170328	  0.202563	  0.314014	  0.067472	
2.793	  0.004058	  0.000000	  0.057992	  0.445652	  0.115586	  0.578613	  0.050003	  0.024730	  0.073601	  0.027368	  0.278107	  0.016083	  0.169168	  0.201241	  0.314009	  0.067258	
2.7935	  0.004458	  0.000000	  0.058750	  0.446859	  0.117450	  0.575833	  0.049886	  0.024664	  0.071609	  0.026624	  0.280116	  0.016405	  0.168003	  0.199922	  0.314057	  0.067031	
2.794	  0.004855	  0.000000	  0.059514	  0.448010	  0.119331	  0.572994	  0.049763	  0.024599	  0.069666	  0.025916	  0.282109	  0.016724	  0.166832	  0.198606	  0.314156	  0.066790	
2.7945	  0.005249	  0.000000	  0.060285	  0.449104	  0.121229	  0.570097	  0.049636	  0.024537	  0.067769	  0.025243	  0.284084	  0.017041	  0.165657	  0.197294	  0.314307	  0.066538	
2.795	  0.005641	  0.000000	  0.061063	  0.450141	  0.123143	  0.567144	  0.049504	  0.024476	  0.065920	  0.024605	  0.286042	  0.017355	  0.164477	  0.195986	  0.314510	  0.066273	
2.7955	  0.006029	  0.000000	  0.061846	  0.451121	  0.125071	  0.564137	  0.049366	  0.024416	  0.064118	  0.024000	  0.287981	  0.017667	  0.163295	  0.194682	  0.314763	  0.065997	
2.796	  0.006414	  0.000000	  0.062637	  0.452043	  0.127014	  0.561076	  0.049223	  0.024358	  0.062362	  0.023429	  0.289902	  0.017976	  0.162110	  0.193382	  0.315066	  0.065709	
2.7965	  0.006796	  0.000000	  0.063433	  0.452907	  0.128970	  0.557962	  0.049074	  0.024302	  0.060651	  0.022891	  0.291805	  0.018282	  0.160922	  0.192088	  0.315418	  0.065411	
2.797	  0.007174	  0.000000	  0.064235	  0.453712	  0.130938	  0.554798	  0.048919	  0.024246	  0.058986	  0.022384	  0.293689	  0.018585	  0.159733	  0.190798	  0.315819	  0.065102	
2.7975	  0.007548	  0.000000	  0.065043	  0.454459	  0.132917	  0.551583	  0.048759	  0.024192	  0.057365	  0.021909	  0.295554	  0.018885	  0.158542	  0.189513	  0.316268	  0.064784	
2.798	  0.007919	  0.000000	  0.065857	  0.455146	  0.134907	  0.548320	  0.048594	  0.024140	  0.055789	  0.021465	  0.297401	  0.019183	  0.157350	  0.188234	  0.316765	  0.064456	
2.7985	  0.008286	  0.000000	  0.066677	  0.455774	  0.136906	  0.545008	  0.048422	  0.024088	  0.054256	  0.021051	  0.299228	  0.019477	  0.156158	  0.186961	  0.317308	  0.064118	
2.799	  0.008650	  0.000000	  0.067502	  0.456342	  0.138915	  0.541648	  0.048245	  0.024037	  0.052766	  0.020666	  0.301037	  0.019769	  0.154966	  0.185695	  0.317897	  0.063773	
2.7995	  0.009009	  0.000000	  0.068332	  0.456849	  0.140931	  0.538241	  0.048062	  0.023987	  0.051319	  0.020310	  0.302827	  0.020057	  0.153773	  0.184436	  0.318531	  0.063419	
2.8	  0.009364	  0.000000	  0.069168	  0.457296	  0.142955	  0.534788	  0.047874	  0.023938	  0.049913	  0.019982	  0.304598	  0.020343	  0.152581	  0.183184	  0.319209	  0.063057	
